<svg xmlns="http://www.w3.org/2000/svg" width="1544" height="500" viewBox="0 0 1544 500" role="img" aria-labelledby="title desc">
	<title id="title">WSTech Visual Table Builder banner</title>
	<desc id="desc">Abstract admin table builder interface with colorful spreadsheet cells.</desc>
	<defs>
		<linearGradient id="bg" x1="0" y1="0" x2="1" y2="1">
			<stop offset="0" stop-color="#111827"/>
			<stop offset="0.48" stop-color="#1f4b99"/>
			<stop offset="1" stop-color="#0f766e"/>
		</linearGradient>
		<linearGradient id="panel" x1="0" y1="0" x2="1" y2="1">
			<stop offset="0" stop-color="#ffffff"/>
			<stop offset="1" stop-color="#eff6ff"/>
		</linearGradient>
		<filter id="shadow" x="-20%" y="-20%" width="140%" height="140%">
			<feDropShadow dx="0" dy="22" stdDeviation="22" flood-color="#020617" flood-opacity="0.28"/>
		</filter>
	</defs>
	<rect width="1544" height="500" fill="url(#bg)"/>
	<circle cx="132" cy="96" r="148" fill="#f97316" opacity="0.18"/>
	<circle cx="1378" cy="388" r="176" fill="#facc15" opacity="0.16"/>
	<path d="M0 420 C220 335 360 470 565 380 C760 292 885 250 1065 322 C1248 395 1356 320 1544 248 L1544 500 L0 500 Z" fill="#ffffff" opacity="0.09"/>
	<g filter="url(#shadow)">
		<rect x="212" y="86" width="1120" height="324" rx="22" fill="url(#panel)"/>
		<rect x="212" y="86" width="1120" height="56" rx="22" fill="#f8fafc"/>
		<rect x="212" y="124" width="1120" height="18" fill="#f8fafc"/>
		<circle cx="252" cy="116" r="9" fill="#ef4444"/>
		<circle cx="282" cy="116" r="9" fill="#f59e0b"/>
		<circle cx="312" cy="116" r="9" fill="#22c55e"/>
		<rect x="1048" y="108" width="210" height="18" rx="9" fill="#dbeafe"/>
		<rect x="286" y="184" width="972" height="178" rx="12" fill="#ffffff" stroke="#d5dde8" stroke-width="2"/>
		<g stroke="#d5dde8" stroke-width="2">
			<path d="M286 230 H1258"/>
			<path d="M286 276 H1258"/>
			<path d="M286 322 H1258"/>
			<path d="M478 184 V362"/>
			<path d="M670 184 V362"/>
			<path d="M862 184 V362"/>
			<path d="M1054 184 V362"/>
		</g>
		<rect x="286" y="184" width="972" height="46" rx="12" fill="#2563eb"/>
		<rect x="286" y="216" width="972" height="14" fill="#2563eb"/>
		<g fill="#ffffff" opacity="0.95">
			<rect x="326" y="201" width="96" height="12" rx="6"/>
			<rect x="518" y="201" width="126" height="12" rx="6"/>
			<rect x="710" y="201" width="98" height="12" rx="6"/>
			<rect x="902" y="201" width="138" height="12" rx="6"/>
			<rect x="1094" y="201" width="100" height="12" rx="6"/>
		</g>
		<g fill="#64748b">
			<rect x="326" y="248" width="116" height="12" rx="6"/>
			<rect x="518" y="248" width="92" height="12" rx="6"/>
			<rect x="710" y="248" width="126" height="12" rx="6"/>
			<rect x="902" y="248" width="96" height="12" rx="6"/>
			<rect x="1094" y="248" width="116" height="12" rx="6"/>
			<rect x="326" y="294" width="92" height="12" rx="6"/>
			<rect x="518" y="294" width="124" height="12" rx="6"/>
			<rect x="710" y="294" width="106" height="12" rx="6"/>
			<rect x="902" y="294" width="132" height="12" rx="6"/>
			<rect x="1094" y="294" width="84" height="12" rx="6"/>
			<rect x="326" y="340" width="118" height="12" rx="6"/>
			<rect x="518" y="340" width="88" height="12" rx="6"/>
			<rect x="710" y="340" width="132" height="12" rx="6"/>
			<rect x="902" y="340" width="104" height="12" rx="6"/>
			<rect x="1094" y="340" width="108" height="12" rx="6"/>
		</g>
		<rect x="920" y="268" width="174" height="42" rx="8" fill="#ecfeff" stroke="#14b8a6" stroke-width="3"/>
		<rect x="936" y="283" width="120" height="12" rx="6" fill="#0f766e"/>
	</g>
</svg>
